<svg xmlns="http://www.w3.org/2000/svg" style="display: none;">
    <!-- M3 Settings / Cog -->
    <symbol id="icon-settings" viewBox="0 0 24 24">
        <path d="M19.14 12.94c.04-.3.06-.61.06-.94 0-.32-.02-.64-.07-.94l2.03-1.58c.18-.14.23-.41.12-.61l-1.92-3.32a.488.488 0 00-.59-.22l-2.39.96c-.5-.38-1.03-.7-1.62-.94l-.36-2.54a.484.484 0 00-.48-.41h-3.84a.48.48 0 00-.48.41l-.36 2.54c-.59.24-1.13.57-1.62.94l-2.39-.96a.488.488 0 00-.59.22L2.74 8.87c-.12.21-.08.47.12.61l2.03 1.58c-.05.3-.09.63-.09.94s.02.64.07.94l-2.03 1.58a.49.49 0 00-.12.61l1.92 3.32c.12.22.37.29.59.22l2.39-.96c.5.38 1.03.7 1.62.94l.36 2.54c.05.24.24.41.48.41h3.84c.24 0 .44-.17.47-.41l.36-2.54c.59-.24 1.13-.56 1.62-.94l2.39.96c.22.08.47 0 .59-.22l1.92-3.32c.12-.22.07-.47-.12-.61l-2.01-1.58zM12 15.6c-1.98 0-3.6-1.62-3.6-3.6s1.62-3.6 3.6-3.6 3.6 1.62 3.6 3.6-1.62 3.6-3.6 3.6z"/>
    </symbol>

    <!-- M3 Folder / Profiles -->
    <symbol id="icon-folder" viewBox="0 0 24 24">
        <path d="M20 6h-8l-2-2H4c-1.11 0-1.99.89-1.99 2L2 18c0 1.11.89 2 2 2h16c1.1 0 2-.9 2-2V8c0-1.11-.9-2-2-2zm0 12H4V8h16v10z"/>
    </symbol>

    <!-- M3 Link / Rules -->
    <symbol id="icon-link" viewBox="0 0 24 24">
        <path d="M17 7h-4v2h4c1.65 0 3 1.35 3 3s-1.35 3-3 3h-4v2h4c2.76 0 5-2.24 5-5s-2.24-5-5-5zm-6 8H7c-1.65 0-3-1.35-3-3s1.35-3 3-3h4V7H7c-2.76 0-5 2.24-5 5s2.24 5 5 5h4v-2zm-3-4h8v2H8v-2z"/>
    </symbol>

    <!-- M3 Clock / Time Scheduling -->
    <symbol id="icon-clock" viewBox="0 0 24 24">
        <path d="M11.99 2C6.47 2 2 6.48 2 12s4.47 10 9.99 10C17.52 22 22 17.52 22 12S17.52 2 11.99 2zM12 20c-4.42 0-8-3.58-8-8s3.58-8 8-8 8 3.58 8 8-3.58 8-8 8zm.5-13H11v6l5.25 3.15.75-1.23-4.5-2.67V7z"/>
    </symbol>

    <!-- M3 Shield / Security Audit -->
    <symbol id="icon-shield" viewBox="0 0 24 24">
        <path d="M12 1L3 5v6c0 5.55 3.84 10.74 9 12 5.16-1.26 9-6.45 9-12V5l-9-4zm0 19.93c-3.75-1-6.5-4.99-6.5-9.43V6.3l6.5-2.89 6.5 2.89v5.2c0 4.44-2.75 8.43-6.5 9.43z"/>
    </symbol>

    <!-- M3 Pen / Alias Edit -->
    <symbol id="icon-pen" viewBox="0 0 24 24">
        <path d="M3 17.25V21h3.75L17.81 9.94l-3.75-3.75L3 17.25zM20.71 7.04c.39-.39.39-1.02 0-1.41l-2.34-2.34c-.39-.39-1.02-.39-1.41 0l-1.83 1.83 3.75 3.75 1.83-1.83z"/>
    </symbol>

    <!-- M3 Cloud Download / Import -->
    <symbol id="icon-download" viewBox="0 0 24 24">
        <path d="M19.35 10.04C18.67 6.59 15.64 4 12 4 9.11 4 6.6 5.64 5.35 8.04 2.34 8.36 0 10.91 0 14c0 3.31 2.69 6 6 6h13c2.76 0 5-2.24 5-5 0-2.64-2.05-4.78-4.65-4.96zM17 13l-5 5-5-5h3V9h4v4h3z"/>
    </symbol>

    <!-- M3 Cloud Upload / Export -->
    <symbol id="icon-upload" viewBox="0 0 24 24">
        <path d="M19.35 10.04C18.67 6.59 15.64 4 12 4 9.11 4 6.6 5.64 5.35 8.04 2.34 8.36 0 10.91 0 14c0 3.31 2.69 6 6 6h13c2.76 0 5-2.24 5-5 0-2.64-2.05-4.78-4.65-4.96zM14 13v4h-4v-4H7l5-5 5 5h-3z"/>
    </symbol>

    <!-- M3 Check / Active Select -->
    <symbol id="icon-check" viewBox="0 0 24 24">
        <path d="M9 16.17L4.83 12l-1.42 1.41L9 19 21 7l-1.41-1.41z"/>
    </symbol>

    <!-- M3 Pushpin / Pinning -->
    <symbol id="icon-pin" viewBox="0 0 16 16">
        <path d="M10 8a2 2 0 1 1-4 0 2 2 0 0 1 4 0z"/>
        <path d="M8 13A5 5 0 1 0 8 3a5 5 0 0 0 0 10zm0-2a3 3 0 1 1 0-6 3 3 0 0 1 0 6z"/>
    </symbol>

    <!-- M3 Dev Dadge / Badges -->
    <symbol id="icon-dev" viewBox="0 0 16 16">
        <rect x="1" y="3" width="14" height="9" fill="#ffffff"/>
        <path xmlns="http://www.w3.org/2000/svg" d="M1 4.5a1 1 0 0 1 1-1h12a1 1 0 0 1 1 1v6a1 1 0 0 1-1 1H2a1 1 0 0 1-1-1v-6zm-1 6a2 2 0 0 0 2 2h12a2 2 0 0 0 2-2v-6a2 2 0 0 0-2-2H2a2 2 0 0 0-2 2v6z" style="&#10;    fill-rule: evenodd;&#10;"/>
        <text xmlns="http://www.w3.org/2000/svg" x="0.5" y="10" font-family="Roboto, Arial, sans-serif" font-weight="bold" font-size="7">DEV</text>
    </symbol>

    <!-- M3 Delete / Trash -->
    <symbol id="icon-delete" viewBox="0 0 24 24">
        <path d="M16 9v10H8V9h8m-1.5-6h-5l-1 1H5v2h14V4h-3.5l-1-1zM18 7H6v12c0 1.1.9 2 2 2h8c1.1 0 2-.9 2-2V7z"/>
    </symbol>
    
    <!-- M3 Plus / Add -->
    <symbol id="icon-add" viewBox="0 0 16 16">
        <path d="M8 4a.5.5 0 0 1 .5.5v3h3a.5.5 0 0 1 0 1h-3v3a.5.5 0 0 1-1 0v-3h-3a.5.5 0 0 1 0-1h3v-3A.5.5 0 0 1 8 4z" />
    </symbol>
</svg>