<svg xmlns="http://www.w3.org/2000/svg">
    <symbol id="icon-settings" viewBox="0 -960 960 960" >
        <path d="m370-80-16-128q-13-5-24.5-12T307-235l-119 50L78-375l103-78q-1-7-1-13.5v-27q0-6.5 1-13.5L78-585l110-190 119 50q11-8 23-15t24-12l16-128h220l16 128q13 5 24.5 12t22.5 15l119-50 110 190-103 78q1 7 1 13.5v27q0 6.5-2 13.5l103 78-110 190-118-50q-11 8-23 15t-24 12L590-80H370Zm70-80h79l14-106q31-8 57.5-23.5T639-327l103 44 40-68-84-71q2-14 3-26.5t1-25.5q0-13-1-25.5t-3-26.5l84-71-40-68-103 44q-22-24-48.5-39.5T533-674l-14-106h-79l-14 106q-31 8-57.5 23.5T321-613l-103-44-40 68 84 71q-2 14-3 26.5t-1 25.5q0 13 1 25.5t3 26.5l-84 71 40 68 103-44q22 24 48.5 39.5T427-327l14 106Zm40-150q33 0 56.5-23.5T560-390q0-33-23.5-56.5T480-470q-33 0-56.5 23.5T400-390q0 33 23.5 56.5T480-310Zm0-170Z" />
    </symbol>
    <symbol id="icon-folder" viewBox="0 -960 960 960" >
        <path d="M160-160q-33 0-56.5-23.5T80-240v-480q0-33 23.5-56.5T160-800h240l80 80h320q33 0 56.5 23.5T880-640v400q0 33-23.5 56.5T800-160H160Zm0-80h640v-400H447l-80-80H160v480Zm0 0v-480 480Z" />
    </symbol>
    <symbol id="icon-pen" viewBox="0 -960 960 960" >
        <path d="M200-200h57l391-391-57-57-391 391v57Zm-80 80v-170l528-527q12-11 26.5-17t30.5-6q16 0 31 6t26 18l55 56q12 11 17.5 26t5.5 30q0 16-5.5 30.5T817-647L290-120H120Zm640-584-56-56 56 56Zm-141 85-28-29 57 57-29-28Z" />
    </symbol>
    <symbol id="icon-download" viewBox="0 0 20 20" >
         <path fill-rule="evenodd" d="M2.5 10a.5.5 0 01.5.5V14a1 1 0 001 1h12a1 1 0 001-1v-3.5a.5.5 0 011 0V14a2 2 0 01-2 2H4a2 2 0 01-2-2v-3.5a.5.5 0 01.5-.5z" />
         <path fill-rule="evenodd" d="M7 9.5a.5.5 0 01.707 0L10 11.793 12.293 9.5a.5.5 0 01.707.707l-2.646 2.647a.5.5 0 01-.708 0L7 10.207A.5.5 0 017 9.5z" />
         <path fill-rule="evenodd" d="M10 3a.5.5 0 01.5.5v8a.5.5 0 01-1 0v-8A.5.5 0 0110 3z" />
    </symbol>
    <symbol id="icon-upload" viewBox="0 -960 960 960" >
        <path d="M240-160q-33 0-56.5-23.5T160-240v-120h80v120h480v-120h80v120q0 33-23.5 56.5T720-160H240Zm240-320L280-680l56-58 104 104v314h80v-314l104 104 56-58-200-200Z" />
    </symbol>
    <symbol id="icon-delete" viewBox="0 -960 960 960" >
        <path d="M280-120q-33 0-56.5-23.5T200-200v-520h-40v-80h200v-40h240v40h200v80h-40v520q0 33-23.5 56.5T680-120H280Zm400-600H280v520h400v-520ZM360-280h80v-360h-80v360Zm160 0h80v-360h-80v360ZM280-720v520-520Z" />
    </symbol>
    <symbol id="icon-" viewBox="0 -960 960 960" >
        <path d="m370-80-16-128q-13-5-24.5-12T307-235l-119 50L78-375l103-78q-1-7-1-13.5v-27q0-6.5 1-13.5L78-585l110-190 119 50q11-8 23-15t24-12l16-128h220l16 128q13 5 24.5 12t22.5 15l119-50 110 190-103 78q1 7 1 13.5v27q0 6.5-2 13.5l103 78-110 190-118-50q-11 8-23 15t-24 12L590-80H370Zm70-80h79l14-106q31-8 57.5-23.5T639-327l103 44 40-68-84-71q2-14 3-26.5t1-25.5q0-13-1-25.5t-3-26.5l84-71-40-68-103 44q-22-24-48.5-39.5T533-674l-14-106h-79l-14 106q-31 8-57.5 23.5T321-613l-103-44-40 68 84 71q-2 14-3 26.5t-1 25.5q0 13 1 25.5t3 26.5l-84 71 40 68 103-44q22 24 48.5 39.5T427-327l14 106Zm40-150q33 0 56.5-23.5T560-390q0-33-23.5-56.5T480-470q-33 0-56.5 23.5T400-390q0 33 23.5 56.5T480-310Zm0-170Z" />
    </symbol>.
</svg>